<svg xmlns="http://www.w3.org/2000/svg" viewBox="0 0 193.66 179.4"><defs><style>.cls-1{fill:#59595b;}.cls-2{fill:#424243;}.cls-3{fill:#e0942f;}</style></defs><g id="OBJECTS"><path class="cls-1" d="M27,160.56a2.26,2.26,0,0,1-1.55-.51,1.7,1.7,0,0,1,0-2.56A2.22,2.22,0,0,1,27,157a2.28,2.28,0,0,1,1.54.49,1.52,1.52,0,0,1,.58,1.24,1.71,1.71,0,0,1-.58,1.34A2.19,2.19,0,0,1,27,160.56Zm-1.77,9.22v-8.53h3.53v8.53Z"/><path class="cls-1" d="M32.76,169.78l-3.43-8.53H33l2.6,6.92H33.73l2.77-6.92h3.34l-3.43,8.53Z"/><path class="cls-1" d="M42.82,169.94a3.81,3.81,0,0,1-1.75-.36,2.61,2.61,0,0,1-1.06-1,2.55,2.55,0,0,1-.36-1.33,2.27,2.27,0,0,1,.43-1.41,2.56,2.56,0,0,1,1.28-.87,6.81,6.81,0,0,1,2.19-.3h1.78v1.7H44.12a1.44,1.44,0,0,0-.82.18.6.6,0,0,0-.26.54.59.59,0,0,0,.23.49.9.9,0,0,0,.61.2,1.19,1.19,0,0,0,.66-.2A1.06,1.06,0,0,0,45,167l.45,1.05a2.21,2.21,0,0,1-.86,1.42A3,3,0,0,1,42.82,169.94Zm2.42-.16v-1.51l-.25-.41V165a1.21,1.21,0,0,0-.38-1,1.9,1.9,0,0,0-1.24-.33,4,4,0,0,0-1.17.18,3.23,3.23,0,0,0-1,.49l-1.12-2.32a6.2,6.2,0,0,1,1.79-.72,8.64,8.64,0,0,1,2-.25,5.32,5.32,0,0,1,3.41,1,3.82,3.82,0,0,1,1.21,3.12v4.59Z"/><path class="cls-1" d="M56,161.09a3.85,3.85,0,0,1,1.78.4A2.9,2.9,0,0,1,59,162.73a4.61,4.61,0,0,1,.46,2.18v4.87H55.94v-4.26a1.75,1.75,0,0,0-.28-1.13,1,1,0,0,0-.76-.33,1.41,1.41,0,0,0-.67.16,1.16,1.16,0,0,0-.48.54,2.37,2.37,0,0,0-.18,1v4H50v-8.53H53.4v2.49l-.67-.71a3.34,3.34,0,0,1,1.35-1.45A3.67,3.67,0,0,1,56,161.09Z"/><path class="cls-1" d="M65.86,169.94a6,6,0,0,1-2.72-.58,4.4,4.4,0,0,1-1.8-1.58,4.12,4.12,0,0,1-.64-2.27,4.22,4.22,0,0,1,.63-2.3,4.43,4.43,0,0,1,1.73-1.56,5.73,5.73,0,0,1,4.81-.06,4.18,4.18,0,0,1,1.72,1.48,4.37,4.37,0,0,1,.64,2.44c0,.12,0,.26,0,.41s0,.29,0,.41H63.62v-1.7h4.69l-1.32.45a1.8,1.8,0,0,0-.18-.84,1.32,1.32,0,0,0-1.24-.75,1.43,1.43,0,0,0-.76.2,1.25,1.25,0,0,0-.49.55,1.93,1.93,0,0,0-.17.84v.54a1.83,1.83,0,0,0,.22.93,1.36,1.36,0,0,0,.62.59,2.26,2.26,0,0,0,1,.19,2.73,2.73,0,0,0,1-.15,4,4,0,0,0,.8-.47l1.84,1.85a4.1,4.1,0,0,1-1.53,1A6.23,6.23,0,0,1,65.86,169.94Z"/><path class="cls-1" d="M70.56,164.29v-2.58H77v2.58Zm4.9,5.65a4.11,4.11,0,0,1-2.75-.85,3.3,3.3,0,0,1-1-2.62v-7.14h3.53v7.11a.84.84,0,0,0,.21.61.67.67,0,0,0,.52.22,1.44,1.44,0,0,0,.8-.23l.84,2.44a3,3,0,0,1-1,.35A6.58,6.58,0,0,1,75.46,169.94Z"/><path class="cls-1" d="M81.86,169.94a9.8,9.8,0,0,1-2.16-.24,5.93,5.93,0,0,1-1.71-.61l1-2.32a5.2,5.2,0,0,0,1.42.56,6.07,6.07,0,0,0,1.56.2,2.4,2.4,0,0,0,.87-.1.36.36,0,0,0,.23-.3q0-.19-.27-.27a3.3,3.3,0,0,0-.7-.14l-1-.11a9.75,9.75,0,0,1-1-.21,3.41,3.41,0,0,1-1-.43,2,2,0,0,1-.7-.75,2.43,2.43,0,0,1-.27-1.21,2.39,2.39,0,0,1,.49-1.47,3.4,3.4,0,0,1,1.47-1,6.29,6.29,0,0,1,2.41-.4,10.75,10.75,0,0,1,1.87.17,5.64,5.64,0,0,1,1.61.53l-1,2.33a4.37,4.37,0,0,0-1.29-.49,5.63,5.63,0,0,0-1.17-.14,2.31,2.31,0,0,0-.92.13c-.16.08-.24.18-.24.28s.09.22.27.28a3.17,3.17,0,0,0,.7.14l1,.12a6.21,6.21,0,0,1,1,.22,3.46,3.46,0,0,1,1,.42,2.16,2.16,0,0,1,.71.76,2.55,2.55,0,0,1,.26,1.21,2.39,2.39,0,0,1-.48,1.43,3.36,3.36,0,0,1-1.47,1.06A6.7,6.7,0,0,1,81.86,169.94Z"/><path class="cls-1" d="M89.59,169.78l-3.43-8.53h3.62l2.61,6.92H90.56l2.78-6.92h3.34l-3.44,8.53Z"/><path class="cls-1" d="M99,160.56a2.26,2.26,0,0,1-1.55-.51,1.7,1.7,0,0,1,0-2.56A2.22,2.22,0,0,1,99,157a2.28,2.28,0,0,1,1.54.49,1.52,1.52,0,0,1,.58,1.24,1.71,1.71,0,0,1-.58,1.34A2.19,2.19,0,0,1,99,160.56Zm-1.77,9.22v-8.53h3.53v8.53Z"/><path class="cls-1" d="M106.9,169.94a5.89,5.89,0,0,1-2.61-.56,4.48,4.48,0,0,1-1.79-1.57,4.45,4.45,0,0,1,0-4.6,4.54,4.54,0,0,1,1.79-1.56,5.89,5.89,0,0,1,2.61-.56,5.1,5.1,0,0,1,2.66.67,3.49,3.49,0,0,1,1.53,1.86L108.36,165a2,2,0,0,0-.65-.86,1.46,1.46,0,0,0-.83-.26,1.55,1.55,0,0,0-.73.18,1.37,1.37,0,0,0-.53.56,2,2,0,0,0-.19.93,2,2,0,0,0,.19.93,1.31,1.31,0,0,0,.53.56,1.47,1.47,0,0,0,1.56-.07,2,2,0,0,0,.65-.86l2.73,1.34a3.49,3.49,0,0,1-1.53,1.86A5.1,5.1,0,0,1,106.9,169.94Z"/><path class="cls-1" d="M111.28,164.29v-2.58h6.44v2.58Zm4.9,5.65a4.11,4.11,0,0,1-2.75-.85,3.3,3.3,0,0,1-1-2.62v-7.14H116v7.11a.84.84,0,0,0,.21.61.67.67,0,0,0,.52.22,1.39,1.39,0,0,0,.79-.23l.85,2.44a3,3,0,0,1-1,.35A6.58,6.58,0,0,1,116.18,169.94Z"/><path class="cls-1" d="M123.51,169.94a5.59,5.59,0,0,1-2.57-.57,4.44,4.44,0,0,1-1.75-1.57,4.43,4.43,0,0,1,0-4.59,4.49,4.49,0,0,1,1.75-1.56,6.18,6.18,0,0,1,5.14,0,4.38,4.38,0,0,1,1.76,1.56,4.5,4.5,0,0,1,0,4.59,4.33,4.33,0,0,1-1.76,1.57A5.56,5.56,0,0,1,123.51,169.94Zm0-2.75a1.29,1.29,0,0,0,.7-.19,1.23,1.23,0,0,0,.5-.57,2,2,0,0,0,.19-.92,2,2,0,0,0-.19-.93,1.3,1.3,0,0,0-.5-.56,1.45,1.45,0,0,0-1.4,0,1.3,1.3,0,0,0-.5.56,2,2,0,0,0-.19.93,2,2,0,0,0,.19.92,1.23,1.23,0,0,0,.5.57A1.29,1.29,0,0,0,123.51,167.19Z"/><path class="cls-1" d="M129.58,169.78v-8.53h3.35v2.57l-.54-.73a2.83,2.83,0,0,1,1.25-1.5,4,4,0,0,1,2.06-.5v3.12a3.66,3.66,0,0,0-.42,0,2.17,2.17,0,0,0-.36,0,2,2,0,0,0-1.31.41,1.75,1.75,0,0,0-.5,1.43v3.79Z"/><path class="cls-1" d="M138.13,169.94a2.05,2.05,0,0,1-1.47-.57,2,2,0,0,1-.59-1.46,1.89,1.89,0,0,1,.59-1.45,2.24,2.24,0,0,1,2.94,0,1.89,1.89,0,0,1,.59,1.45,2,2,0,0,1-.59,1.46A2.05,2.05,0,0,1,138.13,169.94Z"/><path class="cls-1" d="M144.62,169.94a9.64,9.64,0,0,1-2.15-.24,6,6,0,0,1-1.72-.61l1-2.32a5,5,0,0,0,1.41.56,6.2,6.2,0,0,0,1.57.2,2.38,2.38,0,0,0,.86-.1.36.36,0,0,0,.23-.3q0-.19-.27-.27a3.17,3.17,0,0,0-.7-.14l-1-.11a9.75,9.75,0,0,1-1.05-.21,3.54,3.54,0,0,1-1-.43,2,2,0,0,1-.7-.75,2.43,2.43,0,0,1-.27-1.21,2.4,2.4,0,0,1,.5-1.47,3.31,3.31,0,0,1,1.46-1,6.33,6.33,0,0,1,2.41-.4,10.86,10.86,0,0,1,1.88.17,5.67,5.67,0,0,1,1.6.53l-1,2.33a4.31,4.31,0,0,0-1.28-.49,5.72,5.72,0,0,0-1.18-.14,2.25,2.25,0,0,0-.91.13c-.16.08-.24.18-.24.28s.08.22.26.28a3.3,3.3,0,0,0,.7.14l1,.12a6.54,6.54,0,0,1,1.05.22,3.46,3.46,0,0,1,1,.42,2.14,2.14,0,0,1,.7.76,2.44,2.44,0,0,1,.26,1.21,2.39,2.39,0,0,1-.48,1.43,3.3,3.3,0,0,1-1.47,1.06A6.66,6.66,0,0,1,144.62,169.94Z"/><path class="cls-1" d="M151.86,160.56a2.26,2.26,0,0,1-1.55-.51,1.72,1.72,0,0,1,0-2.56,2.22,2.22,0,0,1,1.55-.52,2.28,2.28,0,0,1,1.54.49,1.52,1.52,0,0,1,.58,1.24,1.71,1.71,0,0,1-.58,1.34A2.19,2.19,0,0,1,151.86,160.56Zm-1.76,9.22v-8.53h3.52v8.53Z"/><path class="cls-1" d="M154.4,164.29v-2.58h6.44v2.58Zm4.9,5.65a4.11,4.11,0,0,1-2.75-.85,3.3,3.3,0,0,1-1-2.62v-7.14h3.53v7.11a.84.84,0,0,0,.21.61.67.67,0,0,0,.52.22,1.44,1.44,0,0,0,.8-.23l.84,2.44a3,3,0,0,1-1,.35A6.5,6.5,0,0,1,159.3,169.94Z"/><path class="cls-1" d="M166.84,169.94a6,6,0,0,1-2.73-.58,4.4,4.4,0,0,1-1.8-1.58,4.12,4.12,0,0,1-.64-2.27,4.22,4.22,0,0,1,.63-2.3,4.39,4.39,0,0,1,1.74-1.56,5.38,5.38,0,0,1,2.47-.56,5.47,5.47,0,0,1,2.33.5,4.18,4.18,0,0,1,1.72,1.48,4.37,4.37,0,0,1,.64,2.44c0,.12,0,.26,0,.41s0,.29,0,.41h-6.57v-1.7h4.7l-1.33.45a1.8,1.8,0,0,0-.18-.84,1.31,1.31,0,0,0-.49-.55,1.4,1.4,0,0,0-.75-.2,1.46,1.46,0,0,0-.76.2,1.31,1.31,0,0,0-.49.55,1.93,1.93,0,0,0-.17.84v.54a1.83,1.83,0,0,0,.22.93,1.36,1.36,0,0,0,.62.59,2.26,2.26,0,0,0,1,.19,2.69,2.69,0,0,0,1-.15,4,4,0,0,0,.8-.47l1.84,1.85a4,4,0,0,1-1.53,1A6.21,6.21,0,0,1,166.84,169.94Z"/><path class="cls-2" d="M58.19,48.39,28.91,21a8.07,8.07,0,0,1,7.61-8.44L65,41.29A11.46,11.46,0,0,0,58.19,48.39Z"/><path class="cls-2" d="M129.78,83.46c-3,6.29-14.46,23.9-45.43,12.79-31.58-13-20.87-40.78-20.87-40.78a7.76,7.76,0,0,1,.76-1.42l-4.4-4.11a9.62,9.62,0,0,1,6.67-7.08l6.4,6.46c7.59-1.46,18.63,0,30,4.58a78.53,78.53,0,0,1,8.45,4c0,.66.07,1.33.14,2a81.48,81.48,0,0,0-9.23-4.4c-17.13-6.87-33.28-6.81-36.07.14s8.83,18.16,26,25l2.19.84L99,83.38c5.16,2.06,11.31,2.49,15.57,2.49,3,0,5.06-.21,5.14-.22A49.5,49.5,0,0,0,129.78,83.46Z"/><path class="cls-3" d="M161.49,26s-6.06,6.67-18.7,8.77a31,31,0,0,0-23.06,13.38s-1-2.28,2.2-6.49c0,0-11.66,2.35-7.86,22.29a15.55,15.55,0,0,1,.19,5.5h0s-.7,8.88-14.51,12.08c4.87,1.94,10.76,2.35,14.84,2.35,2.93,0,4.93-.21,4.93-.21s15.57-1.31,25.54-11.51c7.93-8.11,8-15.72,7.66-18.51a15.89,15.89,0,0,1-7.81,7.06l0,0a5.54,5.54,0,0,1-1.4.2c-1.28,0-2.76-.61-1.21-4h0a23.14,23.14,0,0,1,9.3-6.75C162.71,45.41,161.49,26,161.49,26ZM146.07,64.41S138.83,80.13,116.32,78c0,0,4.63-6,2.81-15.77-1.22-8.35,5.66-17.23,20-18.42,0,0-10.2,5.83-9.2,16.62S146.07,64.41,146.07,64.41Z"/><path class="cls-3" d="M158.25,18.4c.27-6.75,3.15-7.89,3.15-7.89s-6.87.82-7.15,5.81.59,6-1.79,9.44C152.46,25.76,158,25.14,158.25,18.4Z"/><path class="cls-3" d="M127.51,33.43a4.17,4.17,0,0,0,.64-5.21s.53,1.67-1.87,3.52a3.7,3.7,0,0,0-1,4.55S125,35.73,127.51,33.43Z"/><path class="cls-2" d="M91.24,128V108a1.48,1.48,0,0,1,.13-.77,1.14,1.14,0,0,1,1-.35h10.06q.74,0,.93.27a1.55,1.55,0,0,1,.19.85v2.44a.71.71,0,0,1-.24.56,1.18,1.18,0,0,1-.75.2h-6q-.57,0-.57.51V115c0,.38.11.58.35.58h5a.9.9,0,0,1,.53.15.56.56,0,0,1,.2.45v2.89a.56.56,0,0,1-.63.63H96.35c-.28,0-.41.18-.41.54V128c0,.48-.09.79-.27.92a1.45,1.45,0,0,1-.84.19H92.35a1.44,1.44,0,0,1-.76-.13A1.13,1.13,0,0,1,91.24,128Z"/><path class="cls-2" d="M105.43,121v-6a12,12,0,0,1,.83-4.95c1-2.27,3.09-3.4,6.09-3.4q4.23,0,5.88,3a11.33,11.33,0,0,1,1,5.3v6a11.91,11.91,0,0,1-.82,4.92q-1.59,3.43-6.1,3.43a6.37,6.37,0,0,1-5.22-2Q105.44,125.25,105.43,121Zm9.14-.54v-5a13.13,13.13,0,0,0-.28-3.37,2,2,0,0,0-3.87,0,12.72,12.72,0,0,0-.29,3.4v5a12.51,12.51,0,0,0,.29,3.37,2,2,0,0,0,3.87,0A13.2,13.2,0,0,0,114.57,120.45Z"/><path class="cls-2" d="M121.5,121v-6a12,12,0,0,1,.82-4.95q1.59-3.41,6.1-3.4,4.22,0,5.87,3a11.2,11.2,0,0,1,1.05,5.3v6a11.89,11.89,0,0,1-.83,4.92c-1,2.29-3.09,3.43-6.09,3.43a6.41,6.41,0,0,1-5.23-2Q121.5,125.25,121.5,121Zm9.14-.54v-5a13,13,0,0,0-.29-3.37,2,2,0,0,0-3.87,0,13.31,13.31,0,0,0-.28,3.4v5a13.08,13.08,0,0,0,.28,3.37,2,2,0,0,0,3.87,0A13.06,13.06,0,0,0,130.64,120.45Z"/><path class="cls-3" d="M137.72,151.23v-50.1a3.87,3.87,0,0,1,.32-1.91,2.88,2.88,0,0,1,2.46-.87h13.76q9,0,13.64,5.21t4.65,15v13.6q0,9-2.78,14Q165.39,154,154.18,154H140.5a3.8,3.8,0,0,1-1.9-.32A2.88,2.88,0,0,1,137.72,151.23Zm11.77-40.79v31.89a2.32,2.32,0,0,0,.24,1.23c.16.24.56.36,1.19.36h2.71a6.05,6.05,0,0,0,5.4-2.59q1.75-2.58,1.75-9.26V120.46a23,23,0,0,0-.95-7.56,6,6,0,0,0-6.05-4.37h-2.86c-.63,0-1,.19-1.19.56A3.4,3.4,0,0,0,149.49,110.44Z"/><path class="cls-2" d="M51.68,137.4l-4,15.21a3.13,3.13,0,0,1-.92,1.78,4.24,4.24,0,0,1-2,.32H36a2.91,2.91,0,0,1-2.06-.65,3.29,3.29,0,0,1-.92-1.45L21.24,101.17a7.9,7.9,0,0,1-.16-1.37c0-1,.57-1.45,1.69-1.45h8.46a1.92,1.92,0,0,1,1.61.73,3.75,3.75,0,0,1,.72,1.44l7.49,34.62c.05.22.11.43.16.65a2.71,2.71,0,0,0,.32.72q.16,0,.33-.48t.24-.81l4-17.63a5.62,5.62,0,0,0,.16-1.53,14.33,14.33,0,0,0-.4-2.66l-2.82-12.23A4.63,4.63,0,0,1,42.9,100a1.5,1.5,0,0,1,1.69-1.69h8.46A2.23,2.23,0,0,1,54.9,99a4.89,4.89,0,0,1,.48,1.61l6.36,30.68a2.4,2.4,0,0,0,.16.48.47.47,0,0,0,.24.24,1.13,1.13,0,0,0,.41-.72l1-4.91,6.2-25.85a3.49,3.49,0,0,1,.77-1.81A2.38,2.38,0,0,1,72,98.35h8.37c1.13,0,1.69.51,1.69,1.53a10,10,0,0,1-.16,1.21l-12.4,51a4.2,4.2,0,0,1-1,2.13,2.42,2.42,0,0,1-1.65.53H57.88a2,2,0,0,1-1.69-.81,3.48,3.48,0,0,1-.57-1.29Z"/><path class="cls-2" d="M75.51,146.39v-5.68a11.34,11.34,0,0,1,.78-4.67c1-2.13,2.91-3.2,5.74-3.2q4,0,5.53,2.87a10.59,10.59,0,0,1,1,5v5.68a11.25,11.25,0,0,1-.78,4.64q-1.5,3.22-5.74,3.23a6.05,6.05,0,0,1-4.92-1.93Q75.51,150.39,75.51,146.39Zm8.61-.51v-4.66a12.14,12.14,0,0,0-.27-3.17,1.93,1.93,0,0,0-3.65,0,12.94,12.94,0,0,0-.26,3.2v4.66a12.76,12.76,0,0,0,.26,3.17,1.93,1.93,0,0,0,3.65,0A12.31,12.31,0,0,0,84.12,145.88Z"/><path class="cls-2" d="M91.84,133.08h5.53c2.53,0,4.43.65,5.68,1.95a5.34,5.34,0,0,1,1.53,3.91,6,6,0,0,1-1,3.59,4.08,4.08,0,0,1-2,1.59q-.27.06-.27.27a1.09,1.09,0,0,0,.15.47l3.73,8.08a1,1,0,0,1,.09.42c0,.44-.23.66-.71.66h-3.11a.95.95,0,0,1-1.14-.63l-3.56-7.78a.67.67,0,0,0-.63-.42h-.56q-.33,0-.33.36V153c0,.46-.09.75-.26.87a1.38,1.38,0,0,1-.79.18H91.84a1.45,1.45,0,0,1-.72-.12,1.09,1.09,0,0,1-.33-.93V134.13a1.45,1.45,0,0,1,.12-.72A1.09,1.09,0,0,1,91.84,133.08Zm3.38,4.34v3.65q0,.45.42.45H97a3,3,0,0,0,2-.63,2.11,2.11,0,0,0,.74-1.68,2.16,2.16,0,0,0-.57-1.55,2.87,2.87,0,0,0-2.18-.75H95.73A.45.45,0,0,0,95.22,137.42Z"/><path class="cls-2" d="M106.79,153V134.13a1.45,1.45,0,0,1,.12-.72,1.09,1.09,0,0,1,.93-.33h2.33c.46,0,.75.09.87.26a1.38,1.38,0,0,1,.18.79v15.64q0,.36.33.36h5.56c.34,0,.56.06.65.19a.91.91,0,0,1,.16.56V153a1.57,1.57,0,0,1-.12.72,1.1,1.1,0,0,1-.93.33h-9a1.45,1.45,0,0,1-.72-.12A1.09,1.09,0,0,1,106.79,153Z"/><path class="cls-2" d="M119.56,153V134.13a1.45,1.45,0,0,1,.12-.72,1.09,1.09,0,0,1,.93-.33h5.17a6.55,6.55,0,0,1,5.13,2,8.24,8.24,0,0,1,1.75,5.64v5.11a10.93,10.93,0,0,1-1,5.27q-1.65,3-5.86,3h-5.14a1.45,1.45,0,0,1-.72-.12A1.09,1.09,0,0,1,119.56,153ZM124,137.63v12a.86.86,0,0,0,.09.46c.06.09.21.14.45.14h1a2.29,2.29,0,0,0,2-1,6.61,6.61,0,0,0,.66-3.49V141.4a8.46,8.46,0,0,0-.36-2.84,2.24,2.24,0,0,0-2.27-1.65h-1.08q-.36,0-.45.21A1.29,1.29,0,0,0,124,137.63Z"/></g></svg>