<svg xmlns="http://www.w3.org/2000/svg" viewBox="0 0 118.72 112.17"><defs><style>.cls-1{fill:#424243;}.cls-2{fill:#e0942f;}</style></defs><g id="OBJECTS"><path class="cls-1" d="M42.77,74.53h0l.14,0,.52.06c2.12.23,9,.62,13.21-2.94,2.87-2.49,7.21-7.19,13.39-16.1a60.67,60.67,0,0,1,19.9-18.08L75.09,36.07h0l-3.8-.36-20.66-2-2.94-.28h0L27.56,31.56l-7.74-.74L19.52,34s7.58,2.5,7,8.41v.06l-9.28-.88c-3.64-.34-5.76,1.94-6,4.36S12.53,51,15.39,53c2.42,1.71,5.89,2.78,9.81,3.43l-.3,3.16a8.71,8.71,0,0,1,1.13,0c7.19.72,6.82,12.62,6.82,12.62s-2.93-5.16-8.66-5.16l-1,10c2.87-1.79,8.5-3,15-2.87C39.78,74.27,41.31,74.37,42.77,74.53ZM25.67,51.46c-5.82-1.05-8.23-3.17-8.81-3.89-.44-.55-.56-1-.69-1a2.05,2.05,0,0,1,.61,0l9.27.88Zm20.79-3.14c7.72-6,13.85,5.9,4.88,8.79S39.81,62.27,37.69,65.9C37.69,65.9,38.75,54.35,46.46,48.32Z"/><path class="cls-1" d="M103.47,49.74l-9.28-.88v-.07c.56-5.9,8.47-6.93,8.47-6.93l.27-2.83C84.5,43.47,70.17,61.92,64.7,70.64a105,105,0,0,0-5.23,10.22c-1.85,4.42-8.24,13.21-21.9,12.73-.66,0-1.32,0-2-.11l-.2,0H35.3c-7.75-.86-11.31-4.16-12.91-7.38l-.2,2A10.84,10.84,0,0,0,32,99.91l9.35.89h0l6.37.6,21,2h0l9.35.89a10.83,10.83,0,0,0,11.8-9.75l3-31.69c4,.1,7.58-.3,10.28-1.52,3.19-1.43,5.16-3.69,5.39-6.18S107.1,50.08,103.47,49.74Zm-.75,6c-.7.6-3.47,2.23-9.39,2.16l.38-4,9.28.88a2,2,0,0,1,.59.14C103.45,54.89,103.26,55.27,102.72,55.72Z"/><path class="cls-1" d="M100.26,20.54S84,10.29,60.4,10.67l-.15-3.23-5.34.26.15,3.23c-11.74,1-25,4.75-38.74,13.59Z"/><path class="cls-2" d="M23.35,80.7c0,2.74,6.41,5.06,14.4,5.16s14.51-2,14.54-4.77S45.88,76,37.89,75.92,23.38,78,23.35,80.7Z"/></g></svg>